<svg width="203" height="114" viewBox="0 0 203 114" fill="none" xmlns="http://www.w3.org/2000/svg">
<g filter="url(#filter0_d_1134_2390)">
<path d="M178.083 107.442L176.525 109.546H168.571L170.095 108.023H175.316L175.804 107.442L175.316 106.825H170.083L168.571 104.802L170.13 102.697H178.083L176.548 104.221H171.339L170.839 104.802L171.339 105.418H176.572L178.083 107.442ZM188.001 109.546H185.932V107.872L185.304 107.256H181.35V109.546L179.28 110.733V102.697H186.443L188.001 104.802L186.815 106.395L188.001 107.581V109.546ZM185.873 104.942L185.327 104.221H181.35V105.697H185.327L185.873 104.942ZM200.026 109.546H197.956V105.162L195.386 108.698H194.049L191.491 105.162V109.546L189.421 110.733V102.697H191.758L194.724 106.779L197.677 102.697H200.026V109.546Z" fill="white"/>
<path d="M193.938 97.68H170.529C169.968 97.68 169.45 97.3815 169.169 96.8966L157.029 75.9501C156.756 75.4781 156.747 74.8981 157.005 74.4177L161.453 66.1504C161.453 66.1504 163.398 61.5137 169.623 61.5137C175.524 61.5137 177.599 66.1288 177.599 66.1288L195.281 95.2939C195.916 96.3412 195.162 97.68 193.938 97.68Z" fill="#FF5301"/>
<path d="M189.19 4.28339H169.822C169.267 4.28339 168.753 4.57658 168.47 5.05458L157.445 23.6865C157.157 24.1735 157.153 24.778 157.434 25.2689L161.647 32.6105C161.647 32.6105 164.047 36.8066 168.845 36.8066C173.19 36.8066 174.876 34.2896 176.079 32.6105L190.563 6.61979C191.146 5.57235 190.389 4.28339 189.19 4.28339Z" fill="#FF5301"/>
<path d="M163.115 48.963C163.124 48.9779 163.139 48.9875 163.156 48.9885C163.194 48.9909 163.216 49.0317 163.198 49.0647L136.699 96.9999C136.423 97.5004 135.896 97.811 135.324 97.811H111.001C109.806 97.811 109.049 96.5306 109.624 95.4834L135.948 47.5304C135.963 47.5034 135.945 47.4702 135.914 47.4685C135.9 47.4678 135.887 47.46 135.88 47.4478L112.059 6.51169C111.449 5.46408 112.205 4.1499 113.417 4.1499H136.253C136.814 4.1499 137.332 4.44859 137.613 4.93373L163.115 48.963Z" fill="#FF5301"/>
<path fill-rule="evenodd" clip-rule="evenodd" d="M56.9873 39.9869V56.4804C56.9873 64.1089 60.4259 98.0783 95.1491 98.0783C128.446 98.0783 131.169 61.9119 131.169 56.4804V39.9869C131.169 26.0013 123.647 0.0449219 95.1491 0.0449219C65.2946 0.0449219 56.9873 26.0013 56.9873 39.9869ZM108.085 45.6171V51.3798C108.085 59.6597 107.373 78.0078 94.8565 78.0078C83.6384 78.0078 80.9798 60.9845 80.9798 51.3798V45.6171C80.9798 38.7945 82.4713 19.519 94.8565 19.519C108.085 19.519 108.085 39.4568 108.085 45.6171Z" fill="white"/>
<path d="M3.03564 35.2515L2.09569 18.9287C2.04376 18.0268 2.76114 17.2715 3.66146 17.197C13.5971 16.375 24.5389 8.47562 28.5647 2.34064C28.8736 1.86991 29.3873 1.56836 29.9503 1.56836H47.311C48.1789 1.56836 48.8824 2.27191 48.8824 3.13978V94.5859C48.8824 95.4538 48.1789 96.1574 47.311 96.1574H26.9139C26.0466 96.1574 25.3433 95.4547 25.3424 94.5874L25.2829 32.5356C25.2815 31.1153 23.4958 30.3855 22.3969 31.2853C15.1543 37.215 7.91871 37.2511 4.23901 36.6413C3.55851 36.5286 3.07529 35.9401 3.03564 35.2515Z" fill="white"/>
<rect x="19.2002" y="37.0508" width="163.162" height="23.9717" fill="url(#paint0_linear_1134_2390)"/>
<path d="M66.4269 55.2378C65.1313 55.2378 64.0283 55.0113 63.1179 54.5582C62.2191 54.0932 61.5363 53.3898 61.0695 52.4479C60.6026 51.5059 60.3691 50.3136 60.3691 48.871C60.3691 46.7487 60.8885 45.1629 61.9273 44.1137C62.9778 43.0525 64.4777 42.522 66.4269 42.522C67.5124 42.522 68.4753 42.7127 69.3157 43.0943C70.1561 43.4639 70.8097 44.0243 71.2766 44.7754C71.7551 45.5146 71.9944 46.4387 71.9944 47.5475H68.9305C68.9305 47.0229 68.8255 46.5758 68.6154 46.2062C68.417 45.8246 68.131 45.5325 67.7575 45.3298C67.3957 45.1271 66.9521 45.0258 66.4269 45.0258C65.7733 45.0258 65.2364 45.1629 64.8162 45.4371C64.396 45.7114 64.0867 46.1048 63.8882 46.6175C63.6898 47.1302 63.5906 47.7502 63.5906 48.4775V49.2823C63.5906 50.0096 63.6898 50.6356 63.8882 51.1602C64.0867 51.6729 64.3901 52.0663 64.7987 52.3405C65.2188 52.6029 65.7558 52.734 66.4094 52.734C66.9696 52.734 67.4424 52.6386 67.8275 52.4479C68.2244 52.2571 68.522 51.9769 68.7204 51.6073C68.9305 51.2257 69.0356 50.7727 69.0356 50.2481H71.9944C71.9944 51.3569 71.761 52.2809 71.2941 53.0202C70.8389 53.7594 70.1911 54.3138 69.3507 54.6834C68.522 55.053 67.5474 55.2378 66.4269 55.2378Z" fill="white"/>
<path d="M84.5643 55.0232V42.7366H87.6982V52.3942H93.8085V55.0232H84.5643Z" fill="white"/>
<path d="M110.894 55.2378C109.739 55.2378 108.741 55.053 107.901 54.6834C107.072 54.3138 106.436 53.7594 105.992 53.0202C105.549 52.2809 105.327 51.3629 105.327 50.266V42.7366H108.478V50.1944C108.478 50.9813 108.683 51.6013 109.091 52.0544C109.5 52.5075 110.101 52.734 110.894 52.734C111.688 52.734 112.295 52.5075 112.715 52.0544C113.135 51.6013 113.345 50.9813 113.345 50.1944V42.7366H116.479V50.266C116.479 51.3629 116.258 52.2809 115.814 53.0202C115.371 53.7594 114.734 54.3138 113.906 54.6834C113.077 55.053 112.073 55.2378 110.894 55.2378Z" fill="white"/>
<path d="M129.579 55.0232V42.7366H136.932C137.551 42.7366 138.111 42.8618 138.613 43.1122C139.115 43.3625 139.512 43.7143 139.804 44.1673C140.107 44.6204 140.259 45.151 140.259 45.7591C140.259 46.2956 140.165 46.7546 139.979 47.1362C139.804 47.5177 139.564 47.8277 139.261 48.0662C138.969 48.3046 138.636 48.4835 138.263 48.6027V48.6742C138.695 48.7696 139.086 48.9425 139.436 49.1929C139.786 49.4313 140.06 49.7592 140.259 50.1765C140.469 50.5938 140.574 51.1006 140.574 51.6967C140.574 52.4002 140.411 53.0023 140.084 53.503C139.757 53.9919 139.325 54.3675 138.788 54.6298C138.251 54.8921 137.65 55.0232 136.985 55.0232H129.579ZM132.713 52.5552H136.127C136.5 52.5552 136.798 52.4419 137.02 52.2154C137.253 51.9888 137.37 51.6431 137.37 51.1781C137.37 50.9277 137.317 50.7071 137.212 50.5163C137.119 50.3136 136.973 50.1586 136.775 50.0513C136.588 49.944 136.354 49.8904 136.074 49.8904H132.713V52.5552ZM132.713 47.619H135.847C136.104 47.619 136.319 47.5654 136.495 47.4581C136.681 47.3508 136.821 47.2017 136.915 47.011C137.02 46.8202 137.072 46.5937 137.072 46.3314C137.072 45.9498 136.961 45.6518 136.74 45.4371C136.518 45.2225 136.238 45.1152 135.899 45.1152H132.713V47.619Z" fill="white"/>
</g>
<defs>
<filter id="filter0_d_1134_2390" x="0.836119" y="0.0449219" width="200.447" height="113.202" filterUnits="userSpaceOnUse" color-interpolation-filters="sRGB">
<feFlood flood-opacity="0" result="BackgroundImageFix"/>
<feColorMatrix in="SourceAlpha" type="matrix" values="0 0 0 0 0 0 0 0 0 0 0 0 0 0 0 0 0 0 127 0" result="hardAlpha"/>
<feOffset dy="1.25714"/>
<feGaussianBlur stdDeviation="0.628571"/>
<feComposite in2="hardAlpha" operator="out"/>
<feColorMatrix type="matrix" values="0 0 0 0 0 0 0 0 0 0 0 0 0 0 0 0 0 0 0.25 0"/>
<feBlend mode="normal" in2="BackgroundImageFix" result="effect1_dropShadow_1134_2390"/>
<feBlend mode="normal" in="SourceGraphic" in2="effect1_dropShadow_1134_2390" result="shape"/>
</filter>
<linearGradient id="paint0_linear_1134_2390" x1="19.2002" y1="49.0366" x2="182.363" y2="49.0366" gradientUnits="userSpaceOnUse">
<stop stop-color="#0E0E0E"/>
<stop offset="1" stop-color="#23170F"/>
</linearGradient>
</defs>
</svg>
