<svg width="1920" height="139" viewBox="0 0 1920 139" fill="none" xmlns="http://www.w3.org/2000/svg">
<path d="M1.62207 15.54C1.62329 15.5405 1.62451 15.5401 1.62695 15.541C1.63188 15.5428 1.64103 15.5468 1.6543 15.5518C1.68118 15.5617 1.72519 15.5782 1.78613 15.6006C1.9084 15.6454 2.09953 15.7142 2.35938 15.8076C2.87935 15.9946 3.67561 16.2774 4.75195 16.6494C6.90481 17.3935 10.1781 18.4953 14.6006 19.9033C23.4455 22.7193 36.8886 26.7609 55.1631 31.6211C91.7121 41.3415 147.589 54.335 224.665 67.3398C378.817 93.3496 617.769 119.405 956.482 119.405C1295.2 119.405 1535.41 93.3503 1690.83 67.3389C1768.54 54.3331 1825.05 41.3378 1862.07 31.6152C1880.59 26.7539 1894.23 22.711 1903.21 19.8936C1907.71 18.4848 1911.04 17.3826 1913.23 16.6377C1914.32 16.2652 1915.13 15.9814 1915.67 15.7939C1915.93 15.7003 1916.12 15.631 1916.25 15.5859C1916.31 15.5634 1916.36 15.5472 1916.39 15.5371C1916.4 15.5321 1916.41 15.5282 1916.41 15.5264C1916.42 15.5255 1916.42 15.5248 1916.42 15.5244V15.5254L1926.5 11.8252V303.955H-8.5V11.7578L1.62207 15.54Z" stroke="black" stroke-width="15"/>
</svg>
