<svg width="150" height="76" viewBox="0 0 150 76" fill="none" xmlns="http://www.w3.org/2000/svg">
<path d="M148.726 75.6923H130.578C130.143 75.6923 129.742 75.4609 129.524 75.0849L120.113 58.8463C119.901 58.4804 119.894 58.0307 120.094 57.6583L123.542 51.2491C123.542 51.2491 125.05 47.6545 129.876 47.6545C134.45 47.6545 136.059 51.2323 136.059 51.2323L149.767 73.8425C150.26 74.6544 149.675 75.6923 148.726 75.6923Z" fill="#FF5301"/>
<path d="M145.045 3.28741H130.03C129.6 3.28741 129.201 3.5147 128.982 3.88527L120.435 18.3296C120.211 18.7072 120.208 19.1758 120.427 19.5563L123.693 25.2479C123.693 25.2479 125.553 28.5009 129.273 28.5009C132.641 28.5009 133.948 26.5496 134.88 25.2479L146.109 5.09869C146.562 4.28666 145.975 3.28741 145.045 3.28741Z" fill="#FF5301"/>
<path d="M124.832 37.9269C124.839 37.938 124.85 37.9452 124.863 37.9459C124.891 37.9476 124.908 37.9781 124.895 38.0029L104.351 75.1664C104.137 75.5544 103.728 75.7952 103.285 75.7952H84.4282C83.5021 75.7952 82.9146 74.8026 83.3603 73.9907L103.769 36.815C103.781 36.7941 103.766 36.7684 103.743 36.7671C103.732 36.7664 103.722 36.7604 103.716 36.751L85.2487 5.01527C84.7761 4.20311 85.362 3.1843 86.3016 3.1843H104.006C104.44 3.1843 104.842 3.41584 105.06 3.79192L124.832 37.9269Z" fill="#FF5301"/>
<path fill-rule="evenodd" clip-rule="evenodd" d="M42.5572 30.9649V43.7514C42.5572 49.6654 45.223 76 72.142 76C97.9551 76 100.066 47.9622 100.066 43.7514V30.9649C100.066 20.1225 94.2351 0 72.142 0C48.9975 0 42.5572 20.1225 42.5572 30.9649ZM82.1696 35.3294V39.7969C82.1696 46.2159 81.6182 60.4402 71.9144 60.4402C63.2177 60.4402 61.1566 47.2429 61.1566 39.7969V35.3294C61.1566 30.0402 62.3128 15.0969 71.9144 15.0969C82.1696 15.0969 82.1696 30.5537 82.1696 35.3294Z" fill="white"/>
<path d="M0.730865 27.295L0.0021745 14.6409C-0.0380885 13.9417 0.518062 13.3561 1.21603 13.2983C8.91863 12.6611 17.4012 6.53714 20.5222 1.78102C20.7616 1.41609 21.1599 1.18231 21.5964 1.18231H35.0552C35.728 1.18231 36.2734 1.72774 36.2734 2.40055V73.2938C36.2734 73.9666 35.728 74.5121 35.0552 74.5121H19.2424C18.57 74.5121 18.0248 73.9674 18.0241 73.295L17.978 25.1896C17.9769 24.0885 16.5926 23.5227 15.7406 24.2203C10.1258 28.8173 4.51645 28.8452 1.66377 28.3725C1.13622 28.2851 0.761607 27.8289 0.730865 27.295Z" fill="white"/>
<rect x="13.2633" y="28.6879" width="126.491" height="18.584" fill="black"/>
<path d="M49.8748 42.7885C48.8704 42.7885 48.0153 42.6129 47.3095 42.2617C46.6127 41.9012 46.0834 41.3558 45.7215 40.6256C45.3595 39.8954 45.1785 38.9711 45.1785 37.8526C45.1785 36.2073 45.5812 34.978 46.3865 34.1646C47.2009 33.3419 48.3637 32.9306 49.8748 32.9306C50.7163 32.9306 51.4628 33.0785 52.1143 33.3743C52.7658 33.6608 53.2726 34.0953 53.6345 34.6776C54.0055 35.2507 54.191 35.967 54.191 36.8266H51.8157C51.8157 36.4199 51.7343 36.0733 51.5714 35.7868C51.4176 35.491 51.1959 35.2645 50.9063 35.1074C50.6258 34.9503 50.282 34.8717 49.8748 34.8717C49.3681 34.8717 48.9518 34.978 48.6261 35.1906C48.3003 35.4032 48.0605 35.7082 47.9067 36.1057C47.7529 36.5031 47.676 36.9838 47.676 37.5476V38.1715C47.676 38.7354 47.7529 39.2206 47.9067 39.6273C48.0605 40.0248 48.2958 40.3298 48.6125 40.5424C48.9383 40.7458 49.3545 40.8475 49.8612 40.8475C50.2956 40.8475 50.662 40.7735 50.9606 40.6256C51.2683 40.4777 51.499 40.2605 51.6528 39.974C51.8157 39.6782 51.8972 39.3269 51.8972 38.9202H54.191C54.191 39.7799 54.01 40.4962 53.6481 41.0693C53.2952 41.6424 52.793 42.0722 52.1415 42.3587C51.499 42.6453 50.7435 42.7885 49.8748 42.7885Z" fill="white"/>
<path d="M63.9358 42.6222V33.097H66.3653V40.584H71.1023V42.6222H63.9358Z" fill="white"/>
<path d="M84.348 42.7885C83.4522 42.7885 82.6786 42.6453 82.0271 42.3587C81.3846 42.0722 80.8915 41.6424 80.5476 41.0693C80.2038 40.4962 80.0318 39.7845 80.0318 38.9341V33.097H82.475V38.8786C82.475 39.4887 82.6333 39.9693 82.95 40.3206C83.2667 40.6718 83.7327 40.8475 84.348 40.8475C84.9633 40.8475 85.4339 40.6718 85.7596 40.3206C86.0854 39.9693 86.2483 39.4887 86.2483 38.8786V33.097H88.6778V38.9341C88.6778 39.7845 88.5059 40.4962 88.162 41.0693C87.8182 41.6424 87.325 42.0722 86.6826 42.3587C86.0401 42.6453 85.2619 42.7885 84.348 42.7885Z" fill="white"/>
<path d="M98.8332 42.6222V33.097H104.534C105.013 33.097 105.448 33.194 105.837 33.3882C106.226 33.5823 106.534 33.8549 106.76 34.2062C106.995 34.5574 107.113 34.9687 107.113 35.4402C107.113 35.8561 107.04 36.212 106.896 36.5077C106.76 36.8035 106.574 37.0439 106.339 37.2287C106.113 37.4136 105.855 37.5522 105.565 37.6447V37.7001C105.9 37.7741 106.203 37.9081 106.475 38.1022C106.746 38.2871 106.959 38.5413 107.113 38.8648C107.276 39.1883 107.357 39.5811 107.357 40.0433C107.357 40.5886 107.23 41.0554 106.977 41.4436C106.724 41.8226 106.389 42.1138 105.973 42.3171C105.556 42.5205 105.09 42.6222 104.575 42.6222H98.8332ZM101.263 40.7088H103.909C104.199 40.7088 104.43 40.621 104.602 40.4454C104.783 40.2697 104.873 40.0017 104.873 39.6412C104.873 39.4471 104.832 39.2761 104.751 39.1282C104.679 38.9711 104.565 38.8509 104.412 38.7677C104.267 38.6845 104.086 38.6429 103.869 38.6429H101.263V40.7088ZM101.263 36.8821H103.692C103.891 36.8821 104.059 36.8405 104.194 36.7573C104.339 36.6741 104.448 36.5586 104.52 36.4107C104.602 36.2628 104.642 36.0872 104.642 35.8838C104.642 35.588 104.556 35.357 104.385 35.1906C104.213 35.0242 103.995 34.941 103.733 34.941H101.263V36.8821Z" fill="white"/>
</svg>
